ffmpeg started on 2026-01-18 at 20:14:40
Report written to "C:\Dev\OSPanel\domains\Java-AT\modules\ffmpeg\FFMetrics\reports\ssim_report-6.txt"
Log level: 32
Command line:
ffmpeg -hide_banner -nostdin -r 24000/1001 -i "F:\\Convert\\files\\[DC] Make Heroine ga Oosugiru - 07_Telegram_HEVC(157).mkv" -r 24000/1001 -i "F:\\Convert\\files\\[DC] Make Heroine ga Oosugiru - 07_Telegram.mp4" -lavfi "[0:v]settb=AVTB,setpts=PTS-STARTPTS,format=pix_fmts=yuv420p10le,fps=24000/1001,scale=1920:1080:flags=lanczos:param0=3:out_range=limited:out_color_matrix=bt709:out_chroma_loc=left,setsar=1/1,setdar=(1920/1080)*(1/1),colorspace=format=yuv420p10:range=tv:primaries=bt709:trc=bt709:space=bt709:fast=0[main];[1:v]settb=AVTB,setpts=PTS-STARTPTS,format=pix_fmts=yuv420p,fps=24000/1001,scale=1920:1080:flags=lanczos:param0=3:out_range=limited:out_color_matrix=bt709:out_chroma_loc=left,setsar=1.000,setdar=1.778,colorspace=format=yuv420p:range=tv:primaries=bt709:trc=bt709:space=bt709:fast=0[ref];[main][ref]ssim=eof_action=endall:stats_file='C\\:/Dev/OSPanel/domains/Java-AT/modules/ffmpeg/FFMetrics/logs/ssim_logfile-6.txt'" -f null -
Input #0, matroska,webm, from 'F:\Convert\files\[DC] Make Heroine ga Oosugiru - 07_Telegram_HEVC(157).mkv':
  Metadata:
    COMPATIBLE_BRANDS: isomiso2avc1mp41
    MAJOR_BRAND     : isom
    MINOR_VERSION   : 512
    ENCODER         : Lavf61.7.100
  Duration: 00:24:06.79, start: -0.021000, bitrate: 919 kb/s
  Stream #0:0: Video: hevc (Main 10), yuv420p10le(tv, bt709, progressive), 1920x1080 [SAR 1:1 DAR 16:9], 23.98 fps, 23.98 tbr, 1k tbn (default)
      Metadata:
        HANDLER_NAME    : VideoHandler
        VENDOR_ID       : [0][0][0][0]
        ENCODER         : Lavc61.19.100 libx265
        BPS             : 722478
        DURATION        : 00:24:06.569708333
        NUMBER_OF_FRAMES: 34683
        NUMBER_OF_BYTES : 130639335
        _STATISTICS_WRITING_APP: mkvpropedit v94.0 ('Initiate') 64-bit
        _STATISTICS_WRITING_DATE_UTC: 2026-01-18 09:07:39
        _STATISTICS_TAGS: BPS DURATION NUMBER_OF_FRAMES NUMBER_OF_BYTES
  Stream #0:1: Audio: aac (LC), 48000 Hz, stereo, fltp (default)
      Metadata:
        HANDLER_NAME    : SoundHandler
        VENDOR_ID       : [0][0][0][0]
        ENCODER         : Lavc61.19.100 aac
        BPS             : 193194
        DURATION        : 00:24:06.784000000
        NUMBER_OF_FRAMES: 67819
        NUMBER_OF_BYTES : 34938755
        _STATISTICS_WRITING_APP: mkvpropedit v94.0 ('Initiate') 64-bit
        _STATISTICS_WRITING_DATE_UTC: 2026-01-18 09:07:39
        _STATISTICS_TAGS: BPS DURATION NUMBER_OF_FRAMES NUMBER_OF_BYTES
Input #1, mov,mp4,m4a,3gp,3g2,mj2, from 'F:\Convert\files\[DC] Make Heroine ga Oosugiru - 07_Telegram.mp4':
  Metadata:
    major_brand     : isom
    minor_version   : 512
    compatible_brands: isomiso2avc1mp41
    encoder         : Lavf60.16.100
  Duration: 00:24:06.74, start: 0.000000, bitrate: 3764 kb/s
  Stream #1:0[0x1](und): Video: h264 (High) (avc1 / 0x31637661), yuv420p(tv, bt709, progressive), 1920x1080 [SAR 1:1 DAR 16:9], 3616 kb/s, 23.98 fps, 23.98 tbr, 24k tbn (default)
      Metadata:
        handler_name    : VideoHandler
        vendor_id       : [0][0][0][0]
        encoder         : Lavc60.31.102 h264_qsv
  Stream #1:1[0x2](und): Audio: aac (HE-AACv2) (mp4a / 0x6134706D), 48000 Hz, stereo, fltp, 144 kb/s (default)
      Metadata:
        handler_name    : SoundHandler
        vendor_id       : [0][0][0][0]
Stream mapping:
  Stream #0:0 (hevc) -> settb:default
  Stream #1:0 (h264) -> settb:default
  ssim:default -> Stream #0:0 (wrapped_avframe)
  Stream #0:1 -> #0:1 (aac (native) -> pcm_s16le (native))
Output #0, null, to 'pipe:':
  Metadata:
    COMPATIBLE_BRANDS: isomiso2avc1mp41
    MAJOR_BRAND     : isom
    MINOR_VERSION   : 512
    encoder         : Lavf61.7.100
  Stream #0:0: Video: wrapped_avframe, yuv420p10le(tv, bt709, progressive), 1920x1080 [SAR 1:1 DAR 16:9], q=2-31, 200 kb/s, 23.98 fps, 23.98 tbn
      Metadata:
        encoder         : Lavc61.19.100 wrapped_avframe
  Stream #0:1: Audio: pcm_s16le, 48000 Hz, stereo, s16, 1536 kb/s (default)
      Metadata:
        HANDLER_NAME    : SoundHandler
        VENDOR_ID       : [0][0][0][0]
        _STATISTICS_TAGS: BPS DURATION NUMBER_OF_FRAMES NUMBER_OF_BYTES
        BPS             : 193194
        DURATION        : 00:24:06.784000000
        NUMBER_OF_FRAMES: 67819
        NUMBER_OF_BYTES : 34938755
        _STATISTICS_WRITING_APP: mkvpropedit v94.0 ('Initiate') 64-bit
        _STATISTICS_WRITING_DATE_UTC: 2026-01-18 09:07:39
        encoder         : Lavc61.19.100 pcm_s16le
frame=  137 fps=0.0 q=-0.0 size=N/A time=00:00:05.71 bitrate=N/A speed=10.9x    frame=  332 fps=320 q=-0.0 size=N/A time=00:00:13.84 bitrate=N/A speed=13.4x    frame=  527 fps=340 q=-0.0 size=N/A time=00:00:21.98 bitrate=N/A speed=14.2x    frame=  721 fps=350 q=-0.0 size=N/A time=00:00:30.07 bitrate=N/A speed=14.6x    frame=  895 fps=348 q=-0.0 size=N/A time=00:00:37.32 bitrate=N/A speed=14.5x    frame= 1053 fps=340 q=-0.0 size=N/A time=00:00:43.91 bitrate=N/A speed=14.2x    frame= 1230 fps=341 q=-0.0 size=N/A time=00:00:51.30 bitrate=N/A speed=14.2x    frame= 1401 fps=340 q=-0.0 size=N/A time=00:00:58.43 bitrate=N/A speed=14.2x    frame= 1552 fps=335 q=-0.0 size=N/A time=00:01:04.73 bitrate=N/A speed=  14x    frame= 1718 fps=333 q=-0.0 size=N/A time=00:01:11.65 bitrate=N/A speed=13.9x    frame= 1898 fps=334 q=-0.0 size=N/A time=00:01:19.16 bitrate=N/A speed=  14x    frame= 2055 fps=332 q=-0.0 size=N/A time=00:01:25.71 bitrate=N/A speed=13.9x    frame= 2185 fps=326 q=-0.0 size=N/A time=00:01:31.13 bitrate=N/A speed=13.6x    frame= 2355 fps=326 q=-0.0 size=N/A time=00:01:38.22 bitrate=N/A speed=13.6x    frame= 2486 fps=321 q=-0.0 size=N/A time=00:01:43.68 bitrate=N/A speed=13.4x    frame= 2648 fps=321 q=-0.0 size=N/A time=00:01:50.44 bitrate=N/A speed=13.4x    frame= 2838 fps=324 q=-0.0 size=N/A time=00:01:58.36 bitrate=N/A speed=13.5x    frame= 3024 fps=326 q=-0.0 size=N/A time=00:02:06.12 bitrate=N/A speed=13.6x    frame= 3221 fps=329 q=-0.0 size=N/A time=00:02:14.34 bitrate=N/A speed=13.7x    frame= 3414 fps=331 q=-0.0 size=N/A time=00:02:22.39 bitrate=N/A speed=13.8x    frame= 3610 fps=334 q=-0.0 size=N/A time=00:02:30.56 bitrate=N/A speed=13.9x    frame= 3807 fps=335 q=-0.0 size=N/A time=00:02:38.78 bitrate=N/A speed=  14x    frame= 4006 fps=338 q=-0.0 size=N/A time=00:02:47.08 bitrate=N/A speed=14.1x    frame= 4199 fps=339 q=-0.0 size=N/A time=00:02:55.13 bitrate=N/A speed=14.2x    frame= 4389 fps=341 q=-0.0 size=N/A time=00:03:03.05 bitrate=N/A speed=14.2x    frame= 4593 fps=342 q=-0.0 size=N/A time=00:03:11.56 bitrate=N/A speed=14.3x    frame= 4784 fps=344 q=-0.0 size=N/A time=00:03:19.53 bitrate=N/A speed=14.3x    frame= 4979 fps=345 q=-0.0 size=N/A time=00:03:27.66 bitrate=N/A speed=14.4x    frame= 5176 fps=346 q=-0.0 size=N/A time=00:03:35.88 bitrate=N/A speed=14.4x    frame= 5373 fps=347 q=-0.0 size=N/A time=00:03:44.09 bitrate=N/A speed=14.5x    frame= 5567 fps=348 q=-0.0 size=N/A time=00:03:52.19 bitrate=N/A speed=14.5x    frame= 5760 fps=349 q=-0.0 size=N/A time=00:04:00.24 bitrate=N/A speed=14.6x    frame= 5958 fps=350 q=-0.0 size=N/A time=00:04:08.49 bitrate=N/A speed=14.6x    frame= 6159 fps=351 q=-0.0 size=N/A time=00:04:16.88 bitrate=N/A speed=14.6x    frame= 6353 fps=352 q=-0.0 size=N/A time=00:04:24.97 bitrate=N/A speed=14.7x    frame= 6545 fps=353 q=-0.0 size=N/A time=00:04:32.98 bitrate=N/A speed=14.7x    frame= 6741 fps=353 q=-0.0 size=N/A time=00:04:41.15 bitrate=N/A speed=14.7x    frame= 6941 fps=354 q=-0.0 size=N/A time=00:04:49.49 bitrate=N/A speed=14.8x    frame= 7130 fps=354 q=-0.0 size=N/A time=00:04:57.38 bitrate=N/A speed=14.8x    frame= 7325 fps=355 q=-0.0 size=N/A time=00:05:05.51 bitrate=N/A speed=14.8x    frame= 7517 fps=356 q=-0.0 size=N/A time=00:05:13.52 bitrate=N/A speed=14.8x    frame= 7713 fps=356 q=-0.0 size=N/A time=00:05:21.69 bitrate=N/A speed=14.8x    frame= 7906 fps=357 q=-0.0 size=N/A time=00:05:29.74 bitrate=N/A speed=14.9x    frame= 8100 fps=357 q=-0.0 size=N/A time=00:05:37.83 bitrate=N/A speed=14.9x    frame= 8291 fps=357 q=-0.0 size=N/A time=00:05:45.80 bitrate=N/A speed=14.9x    frame= 8488 fps=358 q=-0.0 size=N/A time=00:05:54.02 bitrate=N/A speed=14.9x    frame= 8683 fps=358 q=-0.0 size=N/A time=00:06:02.15 bitrate=N/A speed=14.9x    frame= 8874 fps=359 q=-0.0 size=N/A time=00:06:10.11 bitrate=N/A speed=  15x    frame= 9067 fps=359 q=-0.0 size=N/A time=00:06:18.16 bitrate=N/A speed=  15x    frame= 9271 fps=359 q=-0.0 size=N/A time=00:06:26.67 bitrate=N/A speed=  15x    frame= 9467 fps=360 q=-0.0 size=N/A time=00:06:34.85 bitrate=N/A speed=  15x    frame= 9664 fps=360 q=-0.0 size=N/A time=00:06:43.06 bitrate=N/A speed=  15x    frame= 9854 fps=360 q=-0.0 size=N/A time=00:06:50.99 bitrate=N/A speed=  15x    frame=10060 fps=361 q=-0.0 size=N/A time=00:06:59.58 bitrate=N/A speed=15.1x    frame=10250 fps=361 q=-0.0 size=N/A time=00:07:07.51 bitrate=N/A speed=15.1x    frame=10442 fps=361 q=-0.0 size=N/A time=00:07:15.51 bitrate=N/A speed=15.1x    frame=10637 fps=362 q=-0.0 size=N/A time=00:07:23.65 bitrate=N/A speed=15.1x    frame=10829 fps=362 q=-0.0 size=N/A time=00:07:31.65 bitrate=N/A speed=15.1x    frame=11024 fps=362 q=-0.0 size=N/A time=00:07:39.79 bitrate=N/A speed=15.1x    frame=11218 fps=362 q=-0.0 size=N/A time=00:07:47.88 bitrate=N/A speed=15.1x    frame=11417 fps=363 q=-0.0 size=N/A time=00:07:56.18 bitrate=N/A speed=15.1x    frame=11605 fps=363 q=-0.0 size=N/A time=00:08:04.02 bitrate=N/A speed=15.1x    frame=11807 fps=363 q=-0.0 size=N/A time=00:08:12.45 bitrate=N/A speed=15.1x    frame=12003 fps=363 q=-0.0 size=N/A time=00:08:20.62 bitrate=N/A speed=15.2x    frame=12196 fps=364 q=-0.0 size=N/A time=00:08:28.67 bitrate=N/A speed=15.2x    frame=12386 fps=364 q=-0.0 size=N/A time=00:08:36.59 bitrate=N/A speed=15.2x    frame=12580 fps=364 q=-0.0 size=N/A time=00:08:44.69 bitrate=N/A speed=15.2x    frame=12772 fps=364 q=-0.0 size=N/A time=00:08:52.69 bitrate=N/A speed=15.2x    frame=12970 fps=364 q=-0.0 size=N/A time=00:09:00.95 bitrate=N/A speed=15.2x    frame=13158 fps=364 q=-0.0 size=N/A time=00:09:08.79 bitrate=N/A speed=15.2x    frame=13353 fps=364 q=-0.0 size=N/A time=00:09:16.93 bitrate=N/A speed=15.2x    frame=13544 fps=365 q=-0.0 size=N/A time=00:09:24.89 bitrate=N/A speed=15.2x    frame=13735 fps=365 q=-0.0 size=N/A time=00:09:32.86 bitrate=N/A speed=15.2x    frame=13939 fps=365 q=-0.0 size=N/A time=00:09:41.37 bitrate=N/A speed=15.2x    frame=14128 fps=365 q=-0.0 size=N/A time=00:09:49.25 bitrate=N/A speed=15.2x    frame=14321 fps=365 q=-0.0 size=N/A time=00:09:57.30 bitrate=N/A speed=15.2x    frame=14514 fps=365 q=-0.0 size=N/A time=00:10:05.35 bitrate=N/A speed=15.2x    frame=14707 fps=365 q=-0.0 size=N/A time=00:10:13.40 bitrate=N/A speed=15.2x    frame=14902 fps=366 q=-0.0 size=N/A time=00:10:21.53 bitrate=N/A speed=15.2x    frame=15091 fps=366 q=-0.0 size=N/A time=00:10:29.42 bitrate=N/A speed=15.2x    frame=15270 fps=365 q=-0.0 size=N/A time=00:10:36.88 bitrate=N/A speed=15.2x    frame=15466 fps=365 q=-0.0 size=N/A time=00:10:45.06 bitrate=N/A speed=15.2x    frame=15661 fps=366 q=-0.0 size=N/A time=00:10:53.19 bitrate=N/A speed=15.3x    frame=15851 fps=366 q=-0.0 size=N/A time=00:11:01.11 bitrate=N/A speed=15.3x    frame=16045 fps=366 q=-0.0 size=N/A time=00:11:09.21 bitrate=N/A speed=15.3x    frame=16246 fps=366 q=-0.0 size=N/A time=00:11:17.59 bitrate=N/A speed=15.3x    frame=16441 fps=366 q=-0.0 size=N/A time=00:11:25.72 bitrate=N/A speed=15.3x    frame=16634 fps=366 q=-0.0 size=N/A time=00:11:33.77 bitrate=N/A speed=15.3x    frame=16829 fps=367 q=-0.0 size=N/A time=00:11:41.90 bitrate=N/A speed=15.3x    frame=17028 fps=367 q=-0.0 size=N/A time=00:11:50.20 bitrate=N/A speed=15.3x    frame=17227 fps=367 q=-0.0 size=N/A time=00:11:58.50 bitrate=N/A speed=15.3x    frame=17416 fps=367 q=-0.0 size=N/A time=00:12:06.39 bitrate=N/A speed=15.3x    frame=17612 fps=367 q=-0.0 size=N/A time=00:12:14.56 bitrate=N/A speed=15.3x    frame=17810 fps=367 q=-0.0 size=N/A time=00:12:22.82 bitrate=N/A speed=15.3x    frame=18000 fps=367 q=-0.0 size=N/A time=00:12:30.75 bitrate=N/A speed=15.3x    frame=18189 fps=367 q=-0.0 size=N/A time=00:12:38.63 bitrate=N/A speed=15.3x    frame=18380 fps=367 q=-0.0 size=N/A time=00:12:46.59 bitrate=N/A speed=15.3x    frame=18579 fps=367 q=-0.0 size=N/A time=00:12:54.89 bitrate=N/A speed=15.3x    frame=18774 fps=368 q=-0.0 size=N/A time=00:13:03.03 bitrate=N/A speed=15.3x    frame=18972 fps=368 q=-0.0 size=N/A time=00:13:11.29 bitrate=N/A speed=15.3x    frame=19166 fps=368 q=-0.0 size=N/A time=00:13:19.38 bitrate=N/A speed=15.3x    frame=19363 fps=368 q=-0.0 size=N/A time=00:13:27.59 bitrate=N/A speed=15.3x    frame=19566 fps=368 q=-0.0 size=N/A time=00:13:36.06 bitrate=N/A speed=15.4x    frame=19758 fps=368 q=-0.0 size=N/A time=00:13:44.07 bitrate=N/A speed=15.4x    frame=19951 fps=368 q=-0.0 size=N/A time=00:13:52.12 bitrate=N/A speed=15.4x    frame=20146 fps=368 q=-0.0 size=N/A time=00:14:00.25 bitrate=N/A speed=15.4x    frame=20350 fps=369 q=-0.0 size=N/A time=00:14:08.76 bitrate=N/A speed=15.4x    frame=20538 fps=369 q=-0.0 size=N/A time=00:14:16.60 bitrate=N/A speed=15.4x    frame=20725 fps=369 q=-0.0 size=N/A time=00:14:24.40 bitrate=N/A speed=15.4x    frame=20923 fps=369 q=-0.0 size=N/A time=00:14:32.66 bitrate=N/A speed=15.4x    frame=21117 fps=369 q=-0.0 size=N/A time=00:14:40.75 bitrate=N/A speed=15.4x    frame=21317 fps=369 q=-0.0 size=N/A time=00:14:49.09 bitrate=N/A speed=15.4x    frame=21512 fps=369 q=-0.0 size=N/A time=00:14:57.22 bitrate=N/A speed=15.4x    frame=21703 fps=369 q=-0.0 size=N/A time=00:15:05.19 bitrate=N/A speed=15.4x    frame=21897 fps=369 q=-0.0 size=N/A time=00:15:13.28 bitrate=N/A speed=15.4x    frame=22096 fps=369 q=-0.0 size=N/A time=00:15:21.58 bitrate=N/A speed=15.4x    frame=22298 fps=369 q=-0.0 size=N/A time=00:15:30.01 bitrate=N/A speed=15.4x    frame=22494 fps=369 q=-0.0 size=N/A time=00:15:38.18 bitrate=N/A speed=15.4x    frame=22685 fps=370 q=-0.0 size=N/A time=00:15:46.15 bitrate=N/A speed=15.4x    frame=22874 fps=370 q=-0.0 size=N/A time=00:15:54.03 bitrate=N/A speed=15.4x    frame=23079 fps=370 q=-0.0 size=N/A time=00:16:02.58 bitrate=N/A speed=15.4x    frame=23271 fps=370 q=-0.0 size=N/A time=00:16:10.59 bitrate=N/A speed=15.4x    frame=23466 fps=370 q=-0.0 size=N/A time=00:16:18.72 bitrate=N/A speed=15.4x    frame=23664 fps=370 q=-0.0 size=N/A time=00:16:26.98 bitrate=N/A speed=15.4x    frame=23865 fps=370 q=-0.0 size=N/A time=00:16:35.36 bitrate=N/A speed=15.4x    frame=24055 fps=370 q=-0.0 size=N/A time=00:16:43.29 bitrate=N/A speed=15.4x    frame=24244 fps=370 q=-0.0 size=N/A time=00:16:51.17 bitrate=N/A speed=15.4x    frame=24441 fps=370 q=-0.0 size=N/A time=00:16:59.39 bitrate=N/A speed=15.4x    frame=24640 fps=370 q=-0.0 size=N/A time=00:17:07.69 bitrate=N/A speed=15.4x    frame=24837 fps=370 q=-0.0 size=N/A time=00:17:15.90 bitrate=N/A speed=15.4x    frame=25031 fps=370 q=-0.0 size=N/A time=00:17:24.00 bitrate=N/A speed=15.4x    frame=25228 fps=371 q=-0.0 size=N/A time=00:17:32.21 bitrate=N/A speed=15.5x    frame=25426 fps=371 q=-0.0 size=N/A time=00:17:40.47 bitrate=N/A speed=15.5x    frame=25617 fps=371 q=-0.0 size=N/A time=00:17:48.44 bitrate=N/A speed=15.5x    frame=25815 fps=371 q=-0.0 size=N/A time=00:17:56.70 bitrate=N/A speed=15.5x    frame=26010 fps=371 q=-0.0 size=N/A time=00:18:04.83 bitrate=N/A speed=15.5x    frame=26210 fps=371 q=-0.0 size=N/A time=00:18:13.17 bitrate=N/A speed=15.5x    frame=26417 fps=371 q=-0.0 size=N/A time=00:18:21.80 bitrate=N/A speed=15.5x    frame=26611 fps=371 q=-0.0 size=N/A time=00:18:29.90 bitrate=N/A speed=15.5x    frame=26804 fps=371 q=-0.0 size=N/A time=00:18:37.95 bitrate=N/A speed=15.5x    frame=26993 fps=371 q=-0.0 size=N/A time=00:18:45.83 bitrate=N/A speed=15.5x    frame=27185 fps=371 q=-0.0 size=N/A time=00:18:53.84 bitrate=N/A speed=15.5x    frame=27378 fps=371 q=-0.0 size=N/A time=00:19:01.89 bitrate=N/A speed=15.5x    frame=27568 fps=371 q=-0.0 size=N/A time=00:19:09.81 bitrate=N/A speed=15.5x    frame=27763 fps=371 q=-0.0 size=N/A time=00:19:17.94 bitrate=N/A speed=15.5x    frame=27962 fps=371 q=-0.0 size=N/A time=00:19:26.24 bitrate=N/A speed=15.5x    frame=28153 fps=371 q=-0.0 size=N/A time=00:19:34.21 bitrate=N/A speed=15.5x    frame=28352 fps=371 q=-0.0 size=N/A time=00:19:42.51 bitrate=N/A speed=15.5x    frame=28545 fps=371 q=-0.0 size=N/A time=00:19:50.56 bitrate=N/A speed=15.5x    frame=28734 fps=371 q=-0.0 size=N/A time=00:19:58.44 bitrate=N/A speed=15.5x    frame=28918 fps=371 q=-0.0 size=N/A time=00:20:06.12 bitrate=N/A speed=15.5x    frame=29094 fps=371 q=-0.0 size=N/A time=00:20:13.46 bitrate=N/A speed=15.5x    frame=29282 fps=371 q=-0.0 size=N/A time=00:20:21.30 bitrate=N/A speed=15.5x    frame=29464 fps=371 q=-0.0 size=N/A time=00:20:28.89 bitrate=N/A speed=15.5x    frame=29651 fps=371 q=-0.0 size=N/A time=00:20:36.69 bitrate=N/A speed=15.5x    frame=29841 fps=371 q=-0.0 size=N/A time=00:20:44.61 bitrate=N/A speed=15.5x    frame=30016 fps=371 q=-0.0 size=N/A time=00:20:51.91 bitrate=N/A speed=15.5x    frame=30210 fps=371 q=-0.0 size=N/A time=00:21:00.00 bitrate=N/A speed=15.5x    frame=30403 fps=371 q=-0.0 size=N/A time=00:21:08.05 bitrate=N/A speed=15.5x    frame=30599 fps=371 q=-0.0 size=N/A time=00:21:16.23 bitrate=N/A speed=15.5x    frame=30788 fps=371 q=-0.0 size=N/A time=00:21:24.11 bitrate=N/A speed=15.5x    frame=30990 fps=371 q=-0.0 size=N/A time=00:21:32.54 bitrate=N/A speed=15.5x    frame=31184 fps=371 q=-0.0 size=N/A time=00:21:40.63 bitrate=N/A speed=15.5x    frame=31376 fps=371 q=-0.0 size=N/A time=00:21:48.64 bitrate=N/A speed=15.5x    frame=31567 fps=371 q=-0.0 size=N/A time=00:21:56.60 bitrate=N/A speed=15.5x    frame=31761 fps=371 q=-0.0 size=N/A time=00:22:04.69 bitrate=N/A speed=15.5x    frame=31942 fps=371 q=-0.0 size=N/A time=00:22:12.24 bitrate=N/A speed=15.5x    frame=32135 fps=371 q=-0.0 size=N/A time=00:22:20.29 bitrate=N/A speed=15.5x    frame=32326 fps=371 q=-0.0 size=N/A time=00:22:28.26 bitrate=N/A speed=15.5x    frame=32525 fps=371 q=-0.0 size=N/A time=00:22:36.56 bitrate=N/A speed=15.5x    frame=32696 fps=371 q=-0.0 size=N/A time=00:22:43.69 bitrate=N/A speed=15.5x    frame=32863 fps=370 q=-0.0 size=N/A time=00:22:50.66 bitrate=N/A speed=15.4x    frame=33046 fps=370 q=-0.0 size=N/A time=00:22:58.29 bitrate=N/A speed=15.4x    frame=33243 fps=370 q=-0.0 size=N/A time=00:23:06.51 bitrate=N/A speed=15.4x    frame=33424 fps=370 q=-0.0 size=N/A time=00:23:14.05 bitrate=N/A speed=15.4x    frame=33582 fps=370 q=-0.0 size=N/A time=00:23:20.64 bitrate=N/A speed=15.4x    frame=33743 fps=370 q=-0.0 size=N/A time=00:23:27.36 bitrate=N/A speed=15.4x    frame=33875 fps=369 q=-0.0 size=N/A time=00:23:32.86 bitrate=N/A speed=15.4x    frame=34042 fps=369 q=-0.0 size=N/A time=00:23:39.83 bitrate=N/A speed=15.4x    frame=34207 fps=368 q=-0.0 size=N/A time=00:23:46.71 bitrate=N/A speed=15.4x    frame=34361 fps=368 q=-0.0 size=N/A time=00:23:53.14 bitrate=N/A speed=15.3x    frame=34512 fps=368 q=-0.0 size=N/A time=00:23:59.43 bitrate=N/A speed=15.3x    [Parsed_ssim_16 @ 0000013b2a31f3c0] SSIM Y:0.993612 (21.946338) U:0.993447 (21.835305) V:0.993026 (21.565208) All:0.993487 (21.862026)
[out#0/null @ 0000013b1ba53a00] video:14903KiB audio:271276KiB subtitle:0KiB other streams:0KiB global headers:0KiB muxing overhead: unknown
frame=34683 fps=368 q=-0.0 Lsize=N/A time=00:24:06.57 bitrate=N/A speed=15.3x    
